# AST/ASF file generated using VICON BodyLanguage
# -----------------------------------------------
:version 1.10
:name VICON
:units
  mass 1.0
  length 0.45
  angle deg
:documentation
   .ast/.asf automatically generated from VICON data using
   VICON BodyBuilder and BodyLanguage model FoxedUp or BRILLIANT.MOD
:root
   order TX TY TZ RX RY RZ
   axis XYZ
   position 0 0 0  
   orientation 0 0 0 
:bonedata
  begin
     id 1 
     name lhipjoint
     direction 0.603808 -0.713975 0.35448 
     length 2.2025 
     axis 0 0 0  XYZ
  end
  begin
     id 2 
     name lfemur
     direction 0.34202 -0.939693 0  
     length 6.55877  
     axis 0 0 20  XYZ
    dof rx ry rz
    limits (-160.0 20.0)
           (-70.0 70.0)
           (-60.0 70.0)
  end
  begin
     id 3 
     name ltibia
     direction 0.34202 -0.939693 0   
     length 6.80302   
     axis 0 0 20   XYZ
    dof rx
    limits (-10.0 170.0)
  end
  begin
     id 4 
     name lfoot
     direction 0.091848 -0.25235 0.963267   
     length 2.03446   
     axis -90 7.62852e-016 20   XYZ
    dof rx rz
    limits (-45.0 90.0)
           (-70.0 20.0)
  end
  begin
     id 5 
     name ltoes
     direction 1.53608e-011 -4.21925e-011 1   
     length 1.02033   
     axis -90 7.62852e-016 20   XYZ
    dof rx
    limits (-90.0 20.0)
  end
  begin
     id 6 
     name rhipjoint
     direction -0.587285 -0.724947 0.359928   
     length 2.16916  
     axis 0 0 0  XYZ 
  end
  begin
     id 7 
     name rfemur
     direction -0.34202 -0.939693 0   
     length 6.43173   
     axis 0 0 -20   XYZ
    dof rx ry rz
    limits (-160.0 20.0)
           (-70.0 70.0)
           (-70.0 60.0)
  end
  begin
     id 8 
     name rtibia
     direction -0.34202 -0.939693 0   
     length 6.70662   
     axis 0 0 -20   XYZ
    dof rx
    limits (-10.0 170.0)
 end
 begin
     id 9 
     name rfoot
     direction -0.11854 -0.325686 0.938018   
     length 2.0773  
     axis -90 -7.62852e-016 -20   XYZ
    dof rx rz
    limits (-45.0 90.0)
           (-20.0 70.0)
  end
  begin
     id 10 
     name rtoes
     direction -1.53547e-011 -4.21838e-011 1   
     length 1.03267   
     axis -90 -7.62852e-016 -20   XYZ
    dof rx
    limits (-90.0 20.0)
  end
  begin
     id 11 
     name lowerback
     direction -0.0286554 0.999539 0.0100613   
     length 2.08751   
     axis 0 0 0   XYZ
    dof rx ry rz
    limits (-20.0 45.0)
           (-30.0 30.0)
           (-30.0 30.0)
  end
  begin
     id 12 
     name upperback
     direction 0.0227093 0.999705 -0.00860929   
     length 2.08517   
     axis 0 0 0   XYZ
    dof rx ry rz
    limits (-20.0 45.0)
           (-30.0 30.0)
           (-30.0 30.0)
  end
  begin
     id 13 
     name thorax
     direction 0.0351627 0.999285 -0.013892   
     length 2.08412   
     axis 0 0 0   XYZ
    dof rx ry rz
    limits (-20.0 45.0)
           (-30.0 30.0)
           (-30.0 30.0)
  end
  begin
     id 14 
     name lowerneck
     direction -0.0696283 0.997344 0.0213922   
     length 1.44164   
     axis 0 0 0   XYZ
    dof rx ry rz
    limits (-20.0 45.0)
           (-30.0 30.0)
           (-30.0 30.0)
  end
  begin
     id 15 
     name upperneck
     direction 0.0531 0.990412 -0.127531   
     length 1.45022   
     axis 0 0 0   XYZ
    dof rx ry rz
    limits (-20.0 45.0)
           (-30.0 30.0)
           (-30.0 30.0)
  end
  begin
     id 16
     name head
     direction 0.0188154 0.998548 -0.0504727  
     length 1.45845  
     axis 0 0 0   XYZ
    dof rx ry rz
    limits (-20.0 45.0)
           (-30.0 30.0)
           (-30.0 30.0)
  end
  begin
     id 17 
     name lclavicle
     direction 0.961559 0.260051 0.088188  
     length 2.86057  
     axis 0 0 0   XYZ
    dof ry rz
    limits (-20.0 10.0)
           (0.0 20.0)
  end
  begin
     id 18 
     name lhumerus
     direction 1 -4.48959e-011 2.88185e-027   
     length 4.36901   
     axis 180 -30 -90   XYZ
    dof rx ry rz
    limits (-60.0 90.0)
           (-90.0 90.0)
           (-90.0 90.0)
  end
  begin
     id 19
     name lradius
     direction 1 -4.48965e-011 -3.92618e-028   
     length 3.21737   
     axis 180 -30 -90   XYZ
    dof rx
    limits (-10.0 170.0)
  end
  begin
     id 20
     name lwrist
     direction 1 -4.49037e-011 2.57246e-027   
     length 1.60869   
     axis -1.61769e-015 90 90   XYZ
    dof ry
    limits (-180.0 0.0)
 end
  begin
     id 21 
     name lhand
     direction 1 -4.48807e-011 5.12958e-027   
     length 0.564313   
     axis -3.27988e-015 90 90   XYZ
    dof rx rz
    limits (-90.0 90.0)
           (-45.0 45.0)
  end
  begin
     id 22 
     name lfingers
     direction 1 -4.48879e-011 1.02687e-026   
     length 0.454963   
     axis -6.5598e-015 90 90   XYZ
    dof rx
    limits (0.0 90.0)
  end
  begin
     id 23
     name lthumb
     direction 0.707107 -6.3475e-011 0.707107   
     length 0.653239   
     axis -90 45 2.19363e-014   XYZ
    dof rx rz
    limits (-45.0 45.0)
           (-45.0 45.0)
  end
  begin
     id 24 
     name rclavicle
     direction -0.954677 0.253915 0.155304   
     length 3.11497  
     axis 0 0 0   XYZ 
    dof ry rz
    limits (-10.0 20.0)
           (-20.0 0.0)
  end
  begin
     id 25 
     name rhumerus
     direction -1 -4.48958e-011 -8.20169e-028  
     length 4.34118   
     axis 180 30 90   XYZ
    dof rx ry rz
    limits (-90.0 60.0)
           (-90.0 90.0)
           (-90.0 90.0)
  end
  begin
     id 26 
     name rradius
     direction -1 -4.48978e-011 1.5676e-027   
     length 3.09531   
     axis 180 30 90   XYZ
    dof rx
    limits (-10.0 170.0)
  end
  begin
     id 27 
     name rwrist
     direction -1 -4.49001e-011 2.57123e-027   
     length 1.54765   
     axis -1.61769e-015 -90 -90   XYZ
    dof ry
    limits (-180.0 0.0)
  end
  begin
     id 28
     name rhand
     direction -1 -4.48847e-011 5.13225e-027   
     length 0.597446   
     axis -3.27988e-015 -90 -90   XYZ
    dof rx rz
    limits (-90.0 90.0)
           (-45.0 45.0)
  end
  begin
     id 29
     name rfingers
     direction -1 -4.49094e-011 1.02974e-026   
     length 0.481677   
     axis -6.5598e-015 -90 -90   XYZ
    dof rx
    limits (0.0 90.0)
  end
  begin
     id 30
     name rthumb
     direction -0.707107 -6.34859e-011 0.707107   
     length 0.691594   
     axis -90 -45 -2.19363e-014   XYZ
    dof rx rz
    limits (-45.0 45.0)
           (-45.0 45.0)
  end
:hierarchy
  begin
    root lhipjoint rhipjoint lowerback
    lhipjoint lfemur
    lfemur ltibia
    ltibia lfoot
    lfoot ltoes
    rhipjoint rfemur
    rfemur rtibia
    rtibia rfoot
    rfoot rtoes
    lowerback upperback
    upperback thorax
    thorax lowerneck lclavicle rclavicle
    lowerneck upperneck
    upperneck head
    lclavicle lhumerus
    lhumerus lradius
    lradius lwrist
    lwrist lhand lthumb
    lhand lfingers
    rclavicle rhumerus
    rhumerus rradius
    rradius rwrist
    rwrist rhand rthumb
    rhand rfingers
  end

#!OML:ASF I:\Acrobat_Osman\acrobat\cartwheel_test 2\Patient 1\Session 1\acrobat.ASF
:FULLY-SPECIFIED
:DEGREES
313
root 7.95295 28.097 12.2273 -47.2159 1.36415 2.63603
lowerback -5.79444 -0.716408 -4.03719
upperback 0.790163 -0.825824 3.91825
thorax 4.19796 -0.556535 6.30312
lowerneck 0.470258 -4.24711 -9.00293
upperneck 8.01266 -5.74399 2.39906
head 2.8809 -3.08562 2.21074
rclavicle 0 -2.78299e-014
rhumerus 18.6889 -30.3862 -1.16513
rradius 76.4564
rwrist -42.0574
rhand -33.4033 -755.396
rfingers 7.12502
rthumb -6.6036 -65.2731
lclavicle 0 -2.78299e-014
lhumerus -192.95 132.098 164.971
lradius 78.6724
lwrist -263.611
lhand -18.8998 49.7344
lfingers 7.12502
lthumb 7.40186 79.5849
rfemur -9.07197 -12.0073 10.4778
rtibia 75.7298
rfoot 17.8749 -6.3894
rtoes 2.91908
lfemur -8.93479 12.1569 -9.23951
ltibia 77.0575
lfoot 13.312 -10.154
ltoes -2.12419
314
root 7.96101 28.4016 11.8427 -51.4934 1.30779 2.12317
lowerback -3.37397 -0.408063 -3.66639
upperback 2.09147 -0.517728 4.16056
thorax 4.14184 -0.427621 6.3791
lowerneck -0.444755 -4.44791 -9.75422
upperneck 7.62184 -5.97758 3.50563
head 3.01678 -3.17721 2.70256
rclavicle -3.97569e-015 2.38542e-014
rhumerus 5.53733 -30.5491 3.74796
rradius 76.5304
rwrist -46.2156
rhand -28.759 -731.414
rfingers 7.12502
rthumb -2.11897 -41.3833
lclavicle -3.97569e-015 2.38542e-014
lhumerus -206.532 132.973 162.79
lradius 79.0295
lwrist -262.752
lhand -18.852 50.3634
lfingers 7.12502
lthumb 7.44797 80.2123
rfemur -13.3761 -12.0493 9.97995
rtibia 83.5132
rfoot 18.1199 -4.47046
rtoes 3.28431
lfemur -13.8788 12.1061 -7.33656
ltibia 85.4943
lfoot 19.7122 -11.6388
ltoes -11.5198
315
root 7.95551 28.75 11.4194 -55.579 2.56935 2.01954
lowerback -1.5951 -0.243058 -4.04512
upperback 3.69774 -0.313926 3.54211
thorax 4.78216 -0.383596 5.96106
lowerneck -2.46566 -4.71417 -10.0611
upperneck 9.16365 -6.23577 4.59295
head 3.59878 -3.26656 2.762
rclavicle 7.95139e-016 -1.59028e-014
rhumerus -4.00556 -30.7992 -0.860854
rradius 75.7181
rwrist -42.4577
rhand -27.9684 -718.92
rfingers 7.12502
rthumb -1.3554 -28.8953
lclavicle 7.95139e-016 -1.59028e-014
lhumerus -213.879 138.271 166.773
lradius 79.1702
lwrist -263.87
lhand -21.5901 48.4261
lfingers 7.12502
lthumb 4.80454 78.3516
rfemur -18.2985 -12.6232 8.13873
rtibia 90.0219
rfoot 16.4023 -3.11455
rtoes 1.84127
lfemur -19.7872 13.0735 -7.20555
ltibia 92.4921
lfoot 19.2787 -11.9253
ltoes -12.6628
316
root 7.93071 29.0497 10.9623 -60.0642 4.94812 1.5632
lowerback 0.991377 -0.218161 -5.45814
upperback 4.91264 -0.302477 2.6335
thorax 4.59719 -0.438594 5.81044
lowerneck -2.71178 -4.81553 -8.87225
upperneck 8.93734 -6.28539 3.24421
head 3.87832 -3.31678 2.38768
rclavicle 5.1684e-015 -4.25399e-014
rhumerus -11.0318 -29.3205 -4.60146
rradius 73.6302
rwrist -44.8474
rhand -39.0913 -700.766
rfingers 7.12502
rthumb -12.0917 -10.397
lclavicle 5.1684e-015 -4.25399e-014
lhumerus -217.857 144.484 176.525
lradius 78.7932
lwrist -267.576
lhand -18.833 56.4088
lfingers 7.12502
lthumb 7.46639 86.257
rfemur -23.126 -14.1003 5.29085
rtibia 95.1882
rfoot 13.4796 -2.10828
rtoes 2.69409
lfemur -26.6433 13.0752 -8.66589
ltibia 98.2553
lfoot 17.8913 -10.5964
ltoes -8.16138
317
root 7.89383 29.2147 10.5338 -64.2337 6.09166 0.997409
lowerback 3.6274 0.0230358 -5.99003
upperback 5.83933 -0.0817326 1.9712
thorax 4.05251 -0.339548 5.42029
lowerneck -2.24236 -5.05955 -8.45612
upperneck 7.21514 -6.69885 3.84185
head 3.22187 -3.46151 2.51219
rclavicle 1.59028e-015 2.14687e-014
rhumerus -15.8375 -27.9077 -10.7122
rradius 71.7869
rwrist -48.0871
rhand -38.777 -699.724
rfingers 7.12502
rthumb -11.7886 -9.37257
lclavicle 1.59028e-015 2.14687e-014
lhumerus -217.902 152.701 188.92
lradius 78.2376
lwrist -267.261
lhand -25.5701 51.0223
lfingers 7.12502
lthumb 0.960962 80.9999
rfemur -30.0649 -14.6805 4.33392
rtibia 99.376
rfoot 10.7893 -2.10758
rtoes 1.90323
lfemur -35.0081 13.7605 -9.54129
ltibia 102.846
lfoot 16.0906 -11.4016
ltoes -6.91274
318
root 7.85138 29.2875 10.1508 -68.4282 6.71584 0.243184
lowerback 6.47278 0.155147 -6.35955
upperback 6.71238 -0.0631042 1.64948
thorax 3.38179 -0.33858 5.29575
lowerneck -2.08452 -5.32517 -8.66638
upperneck 4.84185 -7.05933 4.75132
head 2.46693 -3.58395 2.86121
rclavicle -5.56597e-015 -1.15295e-014
rhumerus -18.361 -25.2326 -18.177
rradius 70.6054
rwrist -50.7612
rhand -38.9783 -708.114
rfingers 7.12502
rthumb -11.9828 -17.7513
lclavicle -5.56597e-015 -1.15295e-014
lhumerus -217.048 158.814 199.814
lradius 74.6145
lwrist -265.748
lhand -22.7166 55.4787
lfingers 7.12502
lthumb 3.71678 85.4261
rfemur -37.5674 -14.9185 4.25881
rtibia 102.307
rfoot 7.48563 -2.23289
rtoes -0.195343
lfemur -43.3907 13.6808 -10.6978
ltibia 105.795
lfoot 13.462 -12.3711
ltoes -9.94584
319
root 7.82731 29.3293 9.76997 -73.2836 5.99106 -0.667193
lowerback 10.0307 0.279456 -5.54546
upperback 7.46083 -0.0512062 1.78819
thorax 2.19774 -0.283504 4.99161
lowerneck -2.48391 -5.31356 -8.3355
upperneck 2.14133 -6.9541 5.13963
head 1.64016 -3.47153 2.94541
rclavicle -7.15625e-015 6.75868e-015
rhumerus -19.2936 -21.7281 -26.2932
rradius 68.8308
rwrist -51.3208
rhand -39.5637 -702.163
rfingers 7.12502
rthumb -12.5472 -11.7666
lclavicle -7.15625e-015 6.75868e-015
lhumerus -215.342 165.102 210.194
lradius 70.7465
lwrist -268.248
lhand -18.6617 57.5869
lfingers 7.12502
lthumb 7.63166 87.4292
rfemur -44.4954 -14.7246 5.91152
rtibia 104.084
rfoot 4.17413 -1.61834
rtoes -1.18554
lfemur -51.063 13.3054 -10.3548
ltibia 107.33
lfoot 11.4899 -11.9351
ltoes -7.84473
320
root 7.7937 29.3043 9.48566 -78.3403 8.04997 -0.224786
lowerback 13.367 0.876223 -8.32192
upperback 7.98911 0.262431 1.26761
thorax 0.961136 -0.185979 6.00254
lowerneck -2.44429 -5.44618 -8.58905
upperneck -1.11517 -7.03198 5.99534
head 0.634311 -3.4561 3.31845
rclavicle 5.76476e-015 8.54774e-015
rhumerus -20.3635 -16.5442 -34.3902
rradius 68.0269
rwrist -49.6521
rhand -36.4637 -707.277
rfingers 7.12502
rthumb -9.55722 -17.0407
lclavicle 5.76476e-015 8.54774e-015
lhumerus -213.444 171.015 220.148
lradius 66.8321
lwrist -276.792
lhand -12.3808 54.226
lfingers 7.12502
lthumb 13.69 83.7557
rfemur -51.8901 -15.2629 4.08848
rtibia 106.022
rfoot 0.993414 -0.145004
rtoes -1.98379
lfemur -58.1555 13.3506 -13.4387
ltibia 108.572
lfoot 9.79139 -11.8316
ltoes -9.14933
321
root 7.82677 29.2316 9.3568 -84.3809 9.24825 -0.841474
lowerback 17.4334 1.31167 -9.13888
upperback 8.36773 0.352738 0.935903
thorax -0.774057 -0.0945891 6.11578
lowerneck -1.54031 -5.63367 -9.90385
upperneck -5.56199 -7.12223 8.61136
head -0.796314 -3.45209 4.60459
rclavicle 4.27387e-015 3.35698e-014
rhumerus -20.9433 -11 -41.492
rradius 66.266
rwrist -49.9768
rhand -34.5779 -708.691
rfingers 7.12502
rthumb -7.73739 -18.5291
lclavicle 4.27387e-015 3.35698e-014
lhumerus -211.439 175.562 228.431
lradius 63.9326
lwrist -279.86
lhand -12.6192 56.0305
lfingers 7.12502
lthumb 13.4603 85.5756
rfemur -59.5728 -17.1048 3.56383
rtibia 108.629
rfoot -0.463165 1.60483
rtoes -3.03116
lfemur -63.8178 12.3205 -15.6617
ltibia 108.72
lfoot 7.7032 -11.3844
ltoes -9.68347
322
root 7.87295 29.1987 9.25706 -90.7455 10.5707 -1.63518
lowerback 20.8793 1.77718 -9.77758
upperback 8.72048 0.491751 0.404615
thorax -2.16696 0.0237176 5.88876
lowerneck -2.2349 -5.94876 -10.1573
upperneck -8.30268 -7.2317 10.2267
head -1.3143 -3.48765 4.72149
rclavicle -1.80894e-014 -9.79014e-015
rhumerus -21.5325 -4.44894 -47.3424
rradius 63.2381
rwrist -51.3009
rhand -30.5608 -711.918
rfingers 7.12502
rthumb -3.85904 -21.8629
lclavicle -1.80894e-014 -9.79014e-015
lhumerus -209.217 177.878 236.324
lradius 62.2045
lwrist -280.671
lhand -11.6691 57.5314
lfingers 7.12502
lthumb 14.3759 87.0136
rfemur -67.0466 -19.3347 3.31637
rtibia 110.961
rfoot -1.44653 3.75329
rtoes -3.33644
lfemur -70.3569 11.8036 -18.43
ltibia 110.756
lfoot 6.65334 -10.1962
ltoes -13.7306
